<?xml version="1.0" encoding="iso-8859-1"?>
<!-- Generator: Adobe Illustrator 19.0.0, SVG Export Plug-In . SVG Version: 6.00 Build 0)  -->
<!-- License: CC0. Made by SVG Repo: https://www.svgrepo.com/svg/287814/clinic-history-paper -->
<svg version="1.1" id="Layer_1" xmlns="http://www.w3.org/2000/svg" xmlns:xlink="http://www.w3.org/1999/xlink" x="0px" y="0px"
	 viewBox="0 0 392.533 392.533" style="enable-background:new 0 0 392.533 392.533;" xml:space="preserve">
<path style="fill:#56ACE0;" d="M119.661,80.808H86.174c-6.012,0-10.925,4.848-10.925,10.925v268.089
	c0,6.012,4.848,10.925,10.925,10.925h219.927c6.012,0,10.925-4.848,10.925-10.925V91.733c0-6.012-4.848-10.925-10.925-10.925
	h-33.487l2.133,11.119c2.521,6.723-2.521,14.545-10.279,14.545h-0.065H127.806c-6.788,0-11.766-5.947-10.667-12.994L119.661,80.808z
	"/>
<path style="fill:#FFFFFF;" d="M97.099,348.897H295.24V102.594h-22.497c-1.939,2.263-4.784,3.814-8.21,3.814h-0.065H127.806
	c-3.426,0-6.335-1.487-8.275-3.814H97.034C97.099,102.594,97.099,348.897,97.099,348.897z"/>
<polygon style="fill:#FFC10D;" points="146.812,55.143 141.123,84.622 251.152,84.622 245.463,55.143 "/>
<path style="fill:#194F82;" d="M306.101,59.022h-37.689l-3.297-16.873c-1.034-5.107-5.495-8.792-10.667-8.792h-19.782
	C231.952,14.481,215.725,0,196.202,0s-35.749,14.545-38.465,33.358h-19.782c-5.236,0-9.762,3.685-10.667,8.792l-3.297,16.873H86.303
	c-18.036,0-32.711,14.675-32.711,32.711v268.089c0,18.036,14.675,32.711,32.711,32.711H306.23c18.036,0,32.711-14.675,32.711-32.711
	V91.733C338.812,73.697,324.073,59.022,306.101,59.022z M196.137,21.786c7.499,0,13.899,4.848,16.226,11.572h-32.453
	C182.238,26.634,188.638,21.786,196.137,21.786z M146.812,55.143h98.586l5.689,29.414H141.123L146.812,55.143z M316.962,359.822
	c0,6.012-4.848,10.925-10.925,10.925H86.174c-6.012,0-10.925-4.848-10.925-10.925V91.733c0-6.012,4.848-10.925,10.925-10.925h33.487
	l-2.457,12.606c-1.099,7.046,3.943,12.994,10.667,12.994h136.533c0.065,0,0.065,0,0.065,0c7.758,0,12.8-7.822,10.279-14.545
	l-2.133-11.119h33.422c6.012,0,10.925,4.848,10.925,10.925V359.822L316.962,359.822z"/>
<path style="fill:#FFC10D;" d="M179.911,33.358h32.453c-2.327-6.723-8.727-11.572-16.226-11.572S182.238,26.634,179.911,33.358z"/>
<g>
	<path style="fill:#194F82;" d="M275.2,216.566H119.855c-6.012,0-10.925-4.848-10.925-10.925c0-6.012,4.848-10.925,10.925-10.925
		H275.2c6.012,0,10.925,4.848,10.925,10.925C286.061,211.653,281.212,216.566,275.2,216.566z"/>
	<path style="fill:#194F82;" d="M275.2,166.141h-76.929c-6.012,0-10.925-4.848-10.925-10.925c0-6.012,4.848-10.925,10.925-10.925
		h76.865c6.012,0,10.925,4.848,10.925,10.925S281.212,166.141,275.2,166.141z"/>
	<path style="fill:#194F82;" d="M188.121,256.065h-68.267c-6.012,0-10.925-4.848-10.925-10.925s4.848-10.925,10.925-10.925h68.202
		c6.012,0,10.925,4.848,10.925,10.925S194.133,256.065,188.121,256.065z"/>
	<path style="fill:#194F82;" d="M188.121,295.628h-68.267c-6.012,0-10.925-4.848-10.925-10.925c0-6.012,4.848-10.925,10.925-10.925
		h68.202c6.012,0,10.925,4.848,10.925,10.925S194.133,295.628,188.121,295.628z"/>
	<path style="fill:#194F82;" d="M188.121,335.192h-68.267c-6.012,0-10.925-4.849-10.925-10.925c0-6.012,4.848-10.925,10.925-10.925
		h68.202c6.012,0,10.925,4.848,10.925,10.925S194.133,335.192,188.121,335.192z"/>
	<path style="fill:#194F82;" d="M150.368,138.343h-5.689v-5.689c0-6.012-4.848-10.925-10.925-10.925
		c-6.077,0-10.925,4.848-10.925,10.925v5.689h-5.689c-6.012,0-10.925,4.848-10.925,10.925c0,6.012,4.848,10.925,10.925,10.925h5.689
		v5.689c0,6.012,4.848,10.925,10.925,10.925c6.077,0,10.925-4.848,10.925-10.925v-5.689h5.689c6.012,0,10.925-4.848,10.925-10.925
		S156.444,138.343,150.368,138.343z"/>
	<path style="fill:#194F82;" d="M252.315,259.232c5.042,0,9.115,3.943,9.115,8.792c0,4.59,3.879,8.339,8.598,8.339
		s8.598-3.685,8.598-8.339c0-11.119-7.434-20.558-17.648-24.048v-4.073c0-4.59-3.879-8.339-8.598-8.339
		c-4.719,0-8.598,3.685-8.598,8.339v4.073c-10.279,3.491-17.648,12.929-17.648,24.048c0,14.093,11.766,25.471,26.182,25.471
		c5.042,0,9.115,3.943,9.115,8.792c0,4.849-4.073,8.792-9.115,8.792s-9.115-3.943-9.115-8.792c0-4.59-3.879-8.339-8.598-8.339
		s-8.598,3.685-8.598,8.339c0,11.119,7.434,20.558,17.648,24.048v4.073c0,4.59,3.879,8.339,8.598,8.339s8.598-3.685,8.598-8.339
		v-4.073c10.279-3.491,17.648-12.929,17.648-24.048c0-14.093-11.766-25.471-26.182-25.471c-5.042,0-9.115-3.943-9.115-8.792
		C243.2,263.176,247.273,259.232,252.315,259.232z"/>
</g>
</svg>
